<?xml version="1.0" encoding="utf-8"?>
<!-- Generator: Adobe Illustrator 27.0.0, SVG Export Plug-In . SVG Version: 6.00 Build 0)  -->
<svg version="1.1" id="Layer_1" xmlns="http://www.w3.org/2000/svg" xmlns:xlink="http://www.w3.org/1999/xlink" x="0px" y="0px"
	 viewBox="0 0 441.4 409.7" style="enable-background:new 0 0 441.4 409.7;" xml:space="preserve">
<style type="text/css">
	.st0{fill:#A6A9AB;}
	.st1{fill:#00529F;}
	.st2{fill:#FFFFFF;}
</style>
<g>
	<path class="st0" d="M243.8,17.3c41.8,0,79.6,17.3,106.5,44.9C319.9,24.4,273.1,0,220.8,0C129,0,54.8,74.2,54.8,165.7h40.6
		C95.5,83.8,162,17.3,243.8,17.3L243.8,17.3z M197.5,314.3c-41.8,0-79.3-17.3-106.3-45.2c30.4,38.1,77,62.5,129.6,62.5
		c91.5,0,165.7-74.2,165.7-165.9h-40.3C346.1,247.8,279.6,314.3,197.5,314.3L197.5,314.3z"/>
	<path class="st1" d="M329.3,166.5c0,60.5-49.2,109.7-109.4,109.7c-60.5,0-109.7-49.2-109.7-109.7c0-60.5,49.2-109.4,109.7-109.4
		C280.2,57.1,329.3,106,329.3,166.5z"/>
	<path class="st2" d="M291.8,174.7l-20.5,13.6c-4.5,2.8-9.7,5.7-16.2,5.7c-6.5,0-10.8-2.3-15.6-5.4c-2.3-1.4-7.7-5.1-12.5-8.5
		c-4.5-2.8-8.8-5.7-11.1-7.1c-6.3-4.3-14.2-8.5-25-8.5c-10.8,0-19,4.5-25,8.5l-20.2,13.4l8.5,13.4l20.5-13.6
		c4.5-2.8,9.7-5.7,16.2-5.7c6.2,0,11.1,2.3,16.5,6c2.3,1.1,6.5,4,10.5,6.8c5.4,3.7,10.8,7.1,13.1,8.8c6.2,4,13.4,7.7,24.2,7.7
		c10.8,0,19-4.3,25-8.2l20.5-13.6L291.8,174.7L291.8,174.7z M145.5,154.3h154.3v-15.6H145.5V154.3z"/>
	<path class="st1" d="M0,407.5l9.1-15.3c1.4-2,2.6-3.7,5.1-3.7c2.3,0,2.8,1.7,2.8,3.7l0.9,15.3h-6.3l-0.3-3.4H4.8l-2,3.4H0L0,407.5z
		 M6.5,401.5h4.8l-0.3-7.7L6.5,401.5L6.5,401.5z M31.5,388.7l-3.1,11.1c-0.6,2.3-0.9,4.6,2,4.6c2,0,3.4-1.7,4-3.4l3.4-12.2h3.1
		l-3.7,12.5c-1.1,4.3-5.1,6.5-9.4,6.5c-5.4,0-7.1-2.8-5.7-8l3.1-11.1H31.5L31.5,388.7z M44.9,388.7h16.2l-1.1,3.4h-4.8l-4.3,15.3
		h-6.5l4.5-15.3h-5.1L44.9,388.7z M73.3,388.4c5.4,0,8.5,4.3,6.8,9.7c-1.4,5.4-6.8,9.7-12.2,9.7s-8.5-4.3-7.1-9.7
		C62.5,392.7,67.9,388.4,73.3,388.4z M68.5,405.5c2.6,0,4-3.7,5.1-7.4c0.9-3.7,1.7-7.4-1.1-7.4c-2.6,0-3.7,3.7-4.8,7.4
		C66.5,401.8,65.9,405.5,68.5,405.5L68.5,405.5z M87.8,388.7h9.9c3.1,0,5.7,2,4.5,5.7c-0.6,2.6-2.3,4.3-4.8,4.8l3.1,8.2h-7.1
		l-1.7-9.1c2.3,0,3.7-1.4,4.3-3.7c0.6-2.3-0.6-3.4-2-3.4h-0.9l-4.5,16.2h-6.3L87.8,388.7L87.8,388.7z M109.7,388.7h6.5l-5.4,18.8
		h-6.3L109.7,388.7L109.7,388.7z M118.2,381c-0.3,1.7-2.3,3.1-4,3.1s-2.8-1.4-2.3-3.1c0.3-2,2.3-3.4,4-3.4
		C117.6,377.6,118.8,379,118.2,381z M128.7,391.3c-1.1,0-2.3,0.3-2.8,1.7c-0.9,3.4,8.5,0.3,6.5,8c-1.4,4.5-4.8,6.5-8.8,6.5h-6.8
		l0.9-2.6h5.1c2,0,3.1-0.3,3.7-2.3c0.9-3.7-9.1-0.9-7.1-8c1.1-4,4.5-6,8.2-6h6.3l-0.9,2.6L128.7,391.3L128.7,391.3L128.7,391.3z
		 M150.6,396.7h-6l1.1-3.7c0.3-0.9,0.6-1.7,1.4-1.7h5.7l0.6-2.6h-8.5c-2.5,0-4.7,1.6-5.4,4l-3.1,11.1c-0.6,2.3,0.6,3.7,2.6,3.7h9.7
		l0.9-2.6h-5.4c-1.1,0-1.4-0.6-1.1-1.4l0.9-4h6L150.6,396.7L150.6,396.7z M159.1,388.7h9.9c3.4,0,5.7,2,4.8,5.7
		c-0.9,2.6-2.3,4.3-5.1,4.8l3.1,8.2h-7.1l-1.7-9.1c2.6,0,3.7-1.4,4.3-3.7c0.6-2.3-0.3-3.4-2-3.4h-0.6l-4.5,16.2h-6.5L159.1,388.7
		L159.1,388.7z M178.7,388.7h16.2l-1.1,3.4h-4.8l-4.3,15.3h-6.3l4.3-15.3h-4.8L178.7,388.7z M222.5,399.5h-6l-1.1,4
		c-0.3,0.9,0.3,1.4,1.1,1.4h5.4l-0.6,2.6h-9.9c-2,0-3.1-1.4-2.3-3.7l3.1-11.1c0.6-2.6,3.1-4,5.4-4h8.5l-0.8,2.6h-5.4
		c-0.9,0-1.4,0.8-1.7,1.7l-0.9,3.7h6L222.5,399.5L222.5,399.5z M241.5,377l-7.1,25c-0.6,2-0.3,2.8,1.1,2.8h2.6l-0.9,2.6H231
		c-2.8,0-4-1.1-3.1-3.7l7.4-26.7L241.5,377L241.5,377L241.5,377z M247.8,388.7h6.2l-5.1,18.8h-6.5L247.8,388.7z M256.3,381
		c-0.6,1.7-2.3,3.1-4.3,3.1c-1.7,0-2.8-1.4-2.3-3.1c0.6-2,2.6-3.4,4.3-3.4S256.9,379,256.3,381z M271.1,404.6
		c-0.6,1.7-1.4,3.1-3.4,3.1c-1.1,0-1.7-0.6-2-1.7l-3.7-10.5h-0.3l-3.1,11.9h-3.4l4.5-15.6c0.3-1.4,1.1-3.4,4.3-3.4
		c1.7,0,2.6,0.9,3.1,2.6l2.6,7.1l2.6-9.7h3.1L271.1,404.6L271.1,404.6z M288.1,391.3c-1.1,0-2.3,0.3-2.8,1.7c-0.8,3.4,8.5,0.3,6.5,8
		c-1.4,4.5-4.8,6.5-8.8,6.5h-6.8l0.8-2.6h5.1c1.7,0,3.1-0.3,3.7-2.3c0.8-3.7-9.1-0.9-7.1-8c1.1-4,4.5-6,8.2-6h6.2l-0.8,2.6
		L288.1,391.3L288.1,391.3L288.1,391.3z M297.5,388.7h16.2l-0.8,3.4h-5.1l-4.3,15.3h-6.3l4.3-15.3h-4.8L297.5,388.7z M310,407.5
		l9.4-15.3c1.1-2,2.6-3.7,5.1-3.7c2.3,0,2.6,1.7,2.8,3.7l0.6,15.3h-6.2V404h-6.5l-2,3.4H310L310,407.5z M316.8,401.5h4.5v-7.7
		L316.8,401.5z M340.7,377l-7.4,26.7c-0.8,2.6,0.3,3.7,3.1,3.7h6.2l0.9-2.6H341c-1.4,0-1.4-0.8-1.1-2.8l7.1-25L340.7,377L340.7,377
		L340.7,377z M361.7,377l-7.1,25c-0.6,2-0.6,2.8,0.9,2.8h2.8l-0.8,2.6h-6.2c-2.8,0-4-1.1-3.4-3.7l7.4-26.7L361.7,377L361.7,377
		L361.7,377z M358.9,407.5l9.1-15.3c1.4-2,2.6-3.7,5.4-3.7c2.3,0,2.6,1.7,2.6,3.7l0.8,15.3h-6.2l-0.3-3.4H364l-2.3,3.4H358.9
		L358.9,407.5z M365.4,401.5h4.8v-7.7h-0.3L365.4,401.5L365.4,401.5z M382.7,392.1h4.8l-4.3,15.3h6.3l4.3-15.3h5.1l0.9-3.4h-16.2
		L382.7,392.1z M399.2,409.7h-2.8l4.6-4.5c-1.4-1.7-2-4.3-1.1-7.1c1.4-5.4,6.8-9.7,12.2-9.7c2,0,3.7,0.6,4.8,1.4l3.4-3.4h2.8
		l-4.8,4.8c1.1,1.7,1.7,4,0.8,6.8c-1.4,5.4-7.1,9.7-12.5,9.7c-1.7,0-3.1-0.6-4.3-1.1L399.2,409.7L399.2,409.7z M405.7,403.5
		c0,1.1,0.3,2,1.7,2c2.6,0,4-3.7,4.8-7.4c0.3-0.6,0.3-1.1,0.6-1.7L405.7,403.5z M413.1,393.5c0.3-1.7-0.3-2.8-1.7-2.8
		c-2.6,0-4,3.7-4.8,7.4c-0.3,0.9-0.6,1.7-0.6,2.3L413.1,393.5L413.1,393.5z M426.5,388.7h9.9c3.4,0,5.7,2,4.8,5.7
		c-0.9,2.6-2.3,4.3-5.1,4.8l3.1,8.2h-6.8l-2-9.1h0.3c2.3,0,3.4-1.4,4-3.7c0.9-2.3-0.3-3.4-2-3.4h-0.6l-4.6,16.2h-6.2L426.5,388.7z"
		/>
</g>
</svg>
