<?xml version="1.0" encoding="utf-8"?>
<!-- Generator: Adobe Illustrator 27.0.0, SVG Export Plug-In . SVG Version: 6.00 Build 0)  -->
<svg version="1.1" id="Layer_1" xmlns="http://www.w3.org/2000/svg" xmlns:xlink="http://www.w3.org/1999/xlink" x="0px" y="0px"
	 viewBox="0 0 80 80" style="enable-background:new 0 0 80 80;" xml:space="preserve">
<style type="text/css">
	.st0{fill:#A6A9AB;}
	.st1{fill:#00529F;}
	.st2{fill:#FFFFFF;}
</style>
<g>
	<path class="st0" d="M45.6,4.2c10.1,0,19.2,4.2,25.7,10.8C63.9,5.9,52.6,0,40,0C17.9,0,0,17.9,0,40h9.8C9.8,20.2,25.9,4.2,45.6,4.2
		L45.6,4.2z M34.4,75.8c-10.1,0-19.1-4.2-25.6-10.9C16.1,74.1,27.4,80,40,80c22.1,0,40-17.9,40-40h-9.7
		C70.3,59.8,54.2,75.8,34.4,75.8L34.4,75.8z"/>
	<path class="st1" d="M66.4,40.2c0,14.6-11.9,26.5-26.4,26.5c-14.6,0-26.5-11.9-26.5-26.5S25.4,13.8,40,13.8
		C54.6,13.8,66.4,25.6,66.4,40.2z"/>
	<path class="st2" d="M56.6,42.1l-4.9,3.3c-1.1,0.7-2.3,1.4-3.9,1.4s-2.6-0.6-3.8-1.3c-0.6-0.3-1.9-1.2-3-2.1
		c-1.1-0.7-2.1-1.4-2.7-1.7c-1.5-1-3.4-2.1-6-2.1s-4.6,1.1-6,2.1L21.3,45l2.1,3.2l4.9-3.3c1.1-0.7,2.3-1.4,3.9-1.4
		c1.5,0,2.7,0.6,4,1.4c0.6,0.3,1.6,1,2.5,1.6c1.3,0.9,2.6,1.7,3.2,2.1c1.5,1,3.2,1.9,5.8,1.9s4.6-1,6-2l4.9-3.3L56.6,42.1L56.6,42.1
		z M21.3,37.2h37.2v-3.8H21.3V37.2z"/>
</g>
</svg>
