<?xml version="1.0" encoding="utf-8"?>
<!-- Generator: Adobe Illustrator 27.0.0, SVG Export Plug-In . SVG Version: 6.00 Build 0)  -->
<svg version="1.1" id="Layer_1" xmlns="http://www.w3.org/2000/svg" xmlns:xlink="http://www.w3.org/1999/xlink" x="0px" y="0px"
	 viewBox="0 0 1920 1080" style="enable-background:new 0 0 1920 1080;" xml:space="preserve">
<style type="text/css">
	.st0{fill:#A6A9AB;}
	.st1{fill:#00529F;}
	.st2{fill:#FFFFFF;}
</style>
<g>
	<path class="st0" d="M983.1,352.5c41.8,0,79.6,17.3,106.5,44.9c-30.4-37.8-77.3-62.2-129.6-62.2c-91.8,0-165.9,74.2-165.9,165.7
		h40.6C834.7,419,901.2,352.5,983.1,352.5L983.1,352.5z M936.8,649.4c-41.8,0-79.3-17.3-106.3-45.2c30.4,38.1,77,62.5,129.6,62.5
		c91.5,0,165.7-74.2,165.7-165.9h-40.3C1085.4,582.9,1018.9,649.4,936.8,649.4L936.8,649.4z"/>
	<path class="st1" d="M1068.6,501.6c0,60.5-49.2,109.7-109.4,109.7c-60.5,0-109.7-49.2-109.7-109.7c0-60.5,49.2-109.4,109.7-109.4
		C1019.4,392.3,1068.6,441.1,1068.6,501.6z"/>
	<path class="st2" d="M1031.1,509.9l-20.5,13.6c-4.5,2.8-9.7,5.7-16.2,5.7c-6.5,0-10.8-2.3-15.6-5.4c-2.3-1.4-7.7-5.1-12.5-8.5
		c-4.5-2.8-8.8-5.7-11.1-7.1c-6.3-4.3-14.2-8.5-25-8.5c-10.8,0-19,4.5-25,8.5L885,521.5l8.5,13.4l20.5-13.6
		c4.5-2.8,9.7-5.7,16.2-5.7c6.2,0,11.1,2.3,16.5,6c2.3,1.1,6.5,4,10.5,6.8c5.4,3.7,10.8,7.1,13.1,8.8c6.2,4,13.4,7.7,24.2,7.7
		c10.8,0,19-4.3,25-8.2l20.5-13.6L1031.1,509.9L1031.1,509.9z M884.8,489.4H1039v-15.6H884.8V489.4z"/>
	<path class="st1" d="M739.3,742.6l9.1-15.3c1.4-2,2.6-3.7,5.1-3.7c2.3,0,2.8,1.7,2.8,3.7l0.9,15.3h-6.3l-0.3-3.4h-6.5l-2,3.4H739.3
		L739.3,742.6z M745.8,736.6h4.8l-0.3-7.7L745.8,736.6L745.8,736.6z M770.8,723.8l-3.1,11.1c-0.6,2.3-0.9,4.6,2,4.6
		c2,0,3.4-1.7,4-3.4l3.4-12.2h3.1l-3.7,12.5c-1.1,4.3-5.1,6.5-9.4,6.5c-5.4,0-7.1-2.8-5.7-8l3.1-11.1H770.8L770.8,723.8z
		 M784.2,723.8h16.2l-1.1,3.4h-4.8l-4.3,15.3h-6.5l4.5-15.3H783L784.2,723.8z M812.6,723.6c5.4,0,8.5,4.3,6.8,9.7
		c-1.4,5.4-6.8,9.7-12.2,9.7s-8.5-4.3-7.1-9.7C801.8,727.8,807.2,723.6,812.6,723.6z M807.8,740.6c2.6,0,4-3.7,5.1-7.4
		c0.9-3.7,1.7-7.4-1.1-7.4c-2.6,0-3.7,3.7-4.8,7.4S805.2,740.6,807.8,740.6L807.8,740.6z M827.1,723.8h9.9c3.1,0,5.7,2,4.5,5.7
		c-0.6,2.6-2.3,4.3-4.8,4.8l3.1,8.2h-7.1l-1.7-9.1c2.3,0,3.7-1.4,4.3-3.7c0.6-2.3-0.6-3.4-2-3.4h-0.9l-4.5,16.2h-6.3L827.1,723.8
		L827.1,723.8z M849,723.8h6.5l-5.4,18.8h-6.3L849,723.8L849,723.8z M857.5,716.2c-0.3,1.7-2.3,3.1-4,3.1c-1.7,0-2.8-1.4-2.3-3.1
		c0.3-2,2.3-3.4,4-3.4C856.9,712.8,858,714.2,857.5,716.2z M868,726.4c-1.1,0-2.3,0.3-2.8,1.7c-0.9,3.4,8.5,0.3,6.5,8
		c-1.4,4.5-4.8,6.5-8.8,6.5h-6.8l0.9-2.6h5.1c2,0,3.1-0.3,3.7-2.3c0.9-3.7-9.1-0.9-7.1-8c1.1-4,4.5-6,8.2-6h6.3l-0.9,2.6L868,726.4
		L868,726.4L868,726.4z M889.9,731.8h-6l1.1-3.7c0.3-0.9,0.6-1.7,1.4-1.7h5.7l0.6-2.6h-8.5c-2.5,0-4.7,1.6-5.4,4l-3.1,11.1
		c-0.6,2.3,0.6,3.7,2.6,3.7h9.7l0.9-2.6h-5.4c-1.1,0-1.4-0.6-1.1-1.4l0.9-4h6L889.9,731.8L889.9,731.8z M898.4,723.8h9.9
		c3.4,0,5.7,2,4.8,5.7c-0.9,2.6-2.3,4.3-5.1,4.8l3.1,8.2h-7.1l-1.7-9.1c2.6,0,3.7-1.4,4.3-3.7c0.6-2.3-0.3-3.4-2-3.4h-0.6l-4.5,16.2
		H893L898.4,723.8L898.4,723.8z M918,723.8h16.2l-1.1,3.4h-4.8l-4.3,15.3h-6.3l4.3-15.3h-4.8L918,723.8z M961.8,734.6h-6l-1.1,4
		c-0.3,0.9,0.3,1.4,1.1,1.4h5.4l-0.6,2.6h-9.9c-2,0-3.1-1.4-2.3-3.7l3.1-11.1c0.6-2.6,3.1-4,5.4-4h8.5l-0.8,2.6h-5.4
		c-0.9,0-1.4,0.8-1.7,1.7l-0.9,3.7h6L961.8,734.6L961.8,734.6z M980.8,712.2l-7.1,25c-0.6,2-0.3,2.8,1.1,2.8h2.6l-0.9,2.6h-6.2
		c-2.8,0-4-1.1-3.1-3.7l7.4-26.7L980.8,712.2L980.8,712.2L980.8,712.2z M987,723.8h6.2l-5.1,18.8h-6.5L987,723.8z M995.6,716.2
		c-0.6,1.7-2.3,3.1-4.3,3.1c-1.7,0-2.8-1.4-2.3-3.1c0.6-2,2.6-3.4,4.3-3.4S996.1,714.2,995.6,716.2z M1010.3,739.7
		c-0.6,1.7-1.4,3.1-3.4,3.1c-1.1,0-1.7-0.6-2-1.7l-3.7-10.5h-0.3l-3.1,11.9h-3.4L999,727c0.3-1.4,1.1-3.4,4.3-3.4
		c1.7,0,2.6,0.9,3.1,2.6l2.6,7.1l2.6-9.7h3.1L1010.3,739.7L1010.3,739.7z M1027.4,726.4c-1.1,0-2.3,0.3-2.8,1.7
		c-0.8,3.4,8.5,0.3,6.5,8c-1.4,4.5-4.8,6.5-8.8,6.5h-6.8l0.8-2.6h5.1c1.7,0,3.1-0.3,3.7-2.3c0.8-3.7-9.1-0.9-7.1-8
		c1.1-4,4.5-6,8.2-6h6.2l-0.8,2.6L1027.4,726.4L1027.4,726.4L1027.4,726.4z M1036.8,723.8h16.2l-0.8,3.4h-5.1l-4.3,15.3h-6.3
		l4.3-15.3h-4.8L1036.8,723.8z M1049.3,742.6l9.4-15.3c1.1-2,2.6-3.7,5.1-3.7c2.3,0,2.6,1.7,2.8,3.7l0.6,15.3h-6.2v-3.4h-6.5l-2,3.4
		H1049.3L1049.3,742.6z M1056.1,736.6h4.5V729L1056.1,736.6z M1080,712.2l-7.4,26.7c-0.8,2.6,0.3,3.7,3.1,3.7h6.2l0.9-2.6h-2.6
		c-1.4,0-1.4-0.8-1.1-2.8l7.1-25L1080,712.2L1080,712.2L1080,712.2z M1101,712.2l-7.1,25c-0.6,2-0.6,2.8,0.9,2.8h2.8l-0.8,2.6h-6.2
		c-2.8,0-4-1.1-3.4-3.7l7.4-26.7L1101,712.2L1101,712.2L1101,712.2z M1098.1,742.6l9.1-15.3c1.4-2,2.6-3.7,5.4-3.7
		c2.3,0,2.6,1.7,2.6,3.7l0.8,15.3h-6.2l-0.3-3.4h-6.3l-2.3,3.4H1098.1L1098.1,742.6z M1104.7,736.6h4.8V729h-0.3L1104.7,736.6
		L1104.7,736.6z M1122,727.2h4.8l-4.3,15.3h6.3l4.3-15.3h5.1l0.9-3.4h-16.2L1122,727.2z M1138.5,744.9h-2.8l4.6-4.5
		c-1.4-1.7-2-4.3-1.1-7.1c1.4-5.4,6.8-9.7,12.2-9.7c2,0,3.7,0.6,4.8,1.4l3.4-3.4h2.8l-4.8,4.8c1.1,1.7,1.7,4,0.8,6.8
		c-1.4,5.4-7.1,9.7-12.5,9.7c-1.7,0-3.1-0.6-4.3-1.1L1138.5,744.9L1138.5,744.9z M1145,738.6c0,1.1,0.3,2,1.7,2c2.6,0,4-3.7,4.8-7.4
		c0.3-0.6,0.3-1.1,0.6-1.7L1145,738.6z M1152.4,728.7c0.3-1.7-0.3-2.8-1.7-2.8c-2.6,0-4,3.7-4.8,7.4c-0.3,0.9-0.6,1.7-0.6,2.3
		L1152.4,728.7L1152.4,728.7z M1165.8,723.8h9.9c3.4,0,5.7,2,4.8,5.7c-0.9,2.6-2.3,4.3-5.1,4.8l3.1,8.2h-6.8l-2-9.1h0.3
		c2.3,0,3.4-1.4,4-3.7c0.9-2.3-0.3-3.4-2-3.4h-0.6l-4.6,16.2h-6.2L1165.8,723.8z"/>
</g>
</svg>
